<svg width="1734" height="882" viewBox="0 0 1734 882" fill="none" xmlns="http://www.w3.org/2000/svg">
<g id="bacgkround">
<rect width="1734" height="882" fill="#fff"/>
<g id="codetain 1">
<g id="codetain">
<path id="firstletter" d="M483 283.6C471.4 284.9 458.2 287.6 449.4 290.5C407.7 304.2 380.2 334.5 370.8 377C368.6 387.2 368.5 388.8 368.5 441C368.5 493.2 368.6 494.8 370.8 505C381.9 555.3 417.4 587.4 473 597.2C478.5 598.1 492.2 598.5 524 598.5C565.6 598.5 568 598.3 578 596.2C610.2 589.1 633.5 574.7 651.5 550.5C662.8 535.3 670.8 512.7 672.6 491.1L673.3 483H631.6H590V485.7C590 487.3 589.3 490.9 588.5 493.9C585 507.3 576.6 517.9 565.3 523.3L558.5 526.5H523H487.5L480.7 523.3C471.8 519.1 463.2 510.8 458.7 502.2C452.1 489.6 451.8 487.4 451.3 447.4C450.8 408.8 451.4 398.9 455.1 387.7C459.9 373.1 471.4 361.1 484.6 357C490.7 355.2 493.8 355 522.4 355C547.8 355 554.6 355.3 559.1 356.6C574.5 361 584.9 374.8 587.5 394.2L588.1 399H629.1H670V393.2C670 390.1 669.3 383.4 668.5 378.3C661.5 334.9 633.6 302.9 591.2 289.6C574 284.2 569.5 283.8 526.5 283.5C504.5 283.4 484.9 283.4 483 283.6Z" fill="#212842"/>
<path id="lastletter" d="M1207.3 284.5C1185.4 288.5 1162.8 301.5 1148.9 318.2L1144 324.1V306.1V288H1105H1066V441V594H1108H1150V501.9V409.9L1152.6 402.2C1156.2 391.3 1161.2 382.9 1168.7 375C1176.6 366.6 1184 361.5 1193.4 358.1C1200.4 355.5 1200.9 355.5 1228 355.5H1255.5L1261 358.1C1271.1 362.8 1277.9 370.7 1281.6 382C1283.4 387.2 1283.5 393.9 1283.8 490.7L1284.1 594H1325.5H1367V490.2C1367 421 1366.6 383.5 1365.9 377.5C1362.6 350.7 1353.1 330 1336.1 312.9C1319.8 296.5 1299.9 287.2 1274.5 284.1C1262 282.6 1216.4 282.8 1207.3 284.5Z" fill="#212842"/>
<path id="space" d="M767 441V483L867.3 482.8L967.5 482.5V441V399.5L867.3 399.2L767 399V441Z" fill="#4b37ca"/>
</g>
</g>
</g>
</svg>
