<svg width="999" height="316" viewBox="0 0 999 316" fill="none" xmlns="http://www.w3.org/2000/svg">
<g id="codetain">
<path id="firstletter" d="M115 0.599995C103.4 1.9 90.2 4.6 81.4 7.5C39.7 21.2 12.2 51.5 2.8 94C0.6 104.2 0.5 105.8 0.5 158C0.5 210.2 0.6 211.8 2.8 222C13.9 272.3 49.4 304.4 105 314.2C110.5 315.1 124.2 315.5 156 315.5C197.6 315.5 200 315.3 210 313.2C242.2 306.1 265.5 291.7 283.5 267.5C294.8 252.3 302.8 229.7 304.6 208.1L305.3 200H263.6H222V202.7C222 204.3 221.3 207.9 220.5 210.9C217 224.3 208.6 234.9 197.3 240.3L190.5 243.5H155H119.5L112.7 240.3C103.8 236.1 95.2 227.8 90.7 219.2C84.1 206.6 83.8 204.4 83.3 164.4C82.8 125.8 83.4 115.9 87.1 104.7C91.9 90.1 103.4 78.1 116.6 74C122.7 72.2 125.8 72 154.4 72C179.8 72 186.6 72.3 191.1 73.6C206.5 78 216.9 91.8 219.5 111.2L220.1 116H261.1H302V110.2C302 107.1 301.3 100.4 300.5 95.3C293.5 51.9 265.6 19.9 223.2 6.6C206 1.2 201.5 0.799995 158.5 0.499995C136.5 0.399995 116.9 0.399995 115 0.599995Z" fill="black"/>
<path id="lastletter" d="M839.3 1.5C817.4 5.5 794.8 18.5 780.9 35.2L776 41.1V23.1V5H737H698V158V311H740H782V218.9V126.9L784.6 119.2C788.2 108.3 793.2 99.9 800.7 92C808.6 83.6 816 78.5 825.4 75.1C832.4 72.5 832.9 72.5 860 72.5H887.5L893 75.1C903.1 79.8 909.9 87.7 913.6 99C915.4 104.2 915.5 110.9 915.8 207.7L916.1 311H957.5H999V207.2C999 138 998.6 100.5 997.9 94.5C994.6 67.7 985.1 47 968.1 29.9C951.8 13.5 931.9 4.2 906.5 1.1C894 -0.400005 848.4 -0.200005 839.3 1.5Z" fill="black"/>
<path id="space" d="M399 158V200L499.3 199.8L599.5 199.5V158V116.5L499.3 116.2L399 116V158Z" fill="black"/>
</g>
</svg>
