<svg width="19" height="171" viewBox="0 0 19 171" fill="none" xmlns="http://www.w3.org/2000/svg">
<path d="M8.30821 74.2653C8.32285 74.2077 8.35339 74.1653 8.3998 74.1382C8.44102 74.1112 8.48766 74.0972 8.53973 74.096C8.60742 74.0945 8.6703 74.1165 8.72838 74.1621C8.78637 74.2024 8.81612 74.2669 8.81763 74.3554C8.81807 74.3814 8.81834 74.3971 8.81843 74.4023C8.81331 74.4076 8.80837 74.4233 8.8036 74.4495C8.74979 74.6539 8.70887 74.8502 8.68082 75.0383C8.65269 75.2213 8.64049 75.4222 8.64422 75.6409C8.64946 75.9481 8.68573 76.2416 8.75301 76.5214C8.815 76.7961 8.91043 77.0467 9.03931 77.273C9.16289 77.4942 9.32243 77.6859 9.51793 77.8482C9.70823 78.0107 9.93166 78.1306 10.1882 78.2082L13.7811 78.1271C13.9164 78.124 14.0417 78.1395 14.1569 78.1733C14.2721 78.2072 14.3308 78.2892 14.333 78.4194C14.3342 78.4923 14.3196 78.5525 14.2892 78.6001C14.2587 78.6425 14.2175 78.6747 14.1658 78.6967C14.1141 78.7187 14.0571 78.733 13.9947 78.7396C13.9271 78.7464 13.8594 78.7505 13.7917 78.752L8.79299 78.8648C8.67323 78.8676 8.57134 78.849 8.48732 78.8092C8.39809 78.7696 8.35219 78.6742 8.34961 78.5232C8.34765 78.4086 8.38807 78.3348 8.47084 78.3017C8.55353 78.2633 8.65736 78.2428 8.78233 78.2399L9.68835 78.2195C9.3693 78.1433 9.10911 78.0059 8.90778 77.8073C8.70636 77.6035 8.55145 77.3778 8.44304 77.1301C8.32934 76.8774 8.252 76.6187 8.21102 76.3539C8.17004 76.0892 8.14781 75.8552 8.14435 75.6522C8.14097 75.4543 8.1459 75.2848 8.15912 75.1439C8.16704 74.9978 8.18053 74.8725 8.19958 74.7679C8.21343 74.6634 8.2301 74.5718 8.24959 74.4933C8.26909 74.4147 8.28863 74.3387 8.30821 74.2653ZM8.49761 69.338C8.50587 69.8223 8.55486 70.251 8.64457 70.624C8.73428 70.9971 8.87513 71.3143 9.06711 71.5757C9.2538 71.8319 9.49418 72.0297 9.78826 72.1689C10.0823 72.3081 10.4404 72.3834 10.8626 72.3947L10.7621 66.5049L10.3403 66.5145C10.08 66.5203 9.83607 66.5753 9.60865 66.6795C9.38114 66.7784 9.18334 66.9391 9.01524 67.1617C8.84714 67.3843 8.71664 67.6738 8.62375 68.0301C8.53086 68.3865 8.48881 68.8224 8.49761 69.338ZM13.8001 69.6246C13.7916 69.1299 13.753 68.6984 13.6842 68.3301C13.6154 67.9617 13.5345 67.6458 13.4414 67.3822C13.3484 67.1186 13.2536 66.9045 13.157 66.74C13.0604 66.5703 12.98 66.4393 12.9159 66.3469C12.905 66.3159 12.8994 66.2952 12.8992 66.2848C12.8982 66.2275 12.926 66.1748 12.9825 66.1266C13.0337 66.0734 13.0905 66.046 13.153 66.0446C13.2102 66.0433 13.2576 66.0683 13.2949 66.1196C13.3426 66.1654 13.4172 66.2653 13.5188 66.4193C13.6203 66.5681 13.7256 66.7845 13.8346 67.0686C13.9384 67.3527 14.033 67.7049 14.1183 68.1249C14.2036 68.545 14.2512 69.044 14.261 69.622C14.2713 70.2261 14.2046 70.7408 14.0608 71.166C13.917 71.5912 13.7119 71.9397 13.4457 72.2114C13.1795 72.4831 12.8573 72.6831 12.4793 72.8115C12.1012 72.9398 11.6857 73.0091 11.2326 73.0193C10.6286 73.033 10.1245 72.948 9.72029 72.7643C9.31606 72.5807 8.99134 72.325 8.74613 71.9971C8.49563 71.6641 8.31704 71.2722 8.21038 70.8214C8.10363 70.3653 8.04576 69.8743 8.03679 69.3484C8.01831 68.2652 8.21277 67.4507 8.62018 66.9049C9.02229 66.3541 9.60867 66.0699 10.3793 66.0525C10.4522 66.0509 10.533 66.0543 10.6217 66.0627C10.7104 66.0711 10.7966 66.0848 10.8802 66.1037C10.9586 66.1176 11.0267 66.1369 11.0844 66.1617C11.1368 66.1813 11.1632 66.2016 11.1636 66.2224L11.2027 68.5189L11.1907 72.3951C11.6748 72.3738 12.0851 72.302 12.4216 72.1798C12.7528 72.0525 13.0232 71.8745 13.2329 71.6457C13.4373 71.4119 13.5861 71.1272 13.6793 70.7917C13.7674 70.4563 13.8076 70.0673 13.8001 69.6246ZM12.3271 63.4376C12.5771 63.432 12.7869 63.3648 12.9566 63.2359C13.1262 63.1018 13.2637 62.919 13.3692 62.6874C13.4746 62.4558 13.5507 62.1832 13.5974 61.8695C13.6389 61.5508 13.6564 61.204 13.65 60.829C13.6422 60.3708 13.604 59.9653 13.5355 59.6126C13.4617 59.26 13.3731 58.952 13.2697 58.6887C13.1662 58.4253 13.0556 58.2038 12.938 58.0241C12.8151 57.8446 12.698 57.6961 12.5866 57.5788L11.0167 57.6143C10.9527 58.1367 10.8942 58.6772 10.8412 59.2358C10.783 59.7945 10.7588 60.3577 10.7684 60.9253C10.7753 61.3263 10.8048 61.6851 10.8571 62.0017C10.9093 62.3131 10.9946 62.5769 11.1129 62.793C11.2311 63.0092 11.3902 63.1723 11.59 63.2824C11.7846 63.3926 12.0303 63.4443 12.3271 63.4376ZM8.3418 60.2065C8.35033 60.7064 8.37063 61.1332 8.40271 61.4867C8.43479 61.8402 8.47383 62.1441 8.51984 62.3983C8.56576 62.6473 8.61362 62.8572 8.66342 63.028C8.71321 63.1988 8.76265 63.3488 8.81174 63.4779C8.8128 63.5404 8.78254 63.5984 8.72094 63.6519C8.65935 63.7054 8.5921 63.7329 8.5192 63.7346C8.45151 63.7361 8.40151 63.706 8.3692 63.6442C8.34766 63.603 8.31217 63.5074 8.26274 63.3575C8.21321 63.2023 8.16266 62.9872 8.11108 62.7123C8.05422 62.4323 8.00405 62.087 7.96058 61.6764C7.91702 61.2606 7.89044 60.7715 7.88085 60.2091C7.87632 59.9435 7.89005 59.6801 7.92206 59.4189C7.94886 59.1578 8.00456 58.9117 8.08917 58.6806C8.17369 58.4442 8.29237 58.2254 8.4452 58.024C8.59795 57.8173 8.79809 57.6409 9.04563 57.4947C9.28787 57.3433 9.58532 57.222 9.93797 57.1307C10.2854 57.0395 10.6961 56.9885 11.1699 56.9778L13.4193 56.9271C13.4818 56.9257 13.5443 56.9268 13.6069 56.9306C13.6695 56.9344 13.7296 56.9487 13.7874 56.9735C13.8398 56.9931 13.8846 57.0234 13.9217 57.0642C13.9537 57.1052 13.9703 57.1621 13.9715 57.235C13.9736 57.3548 13.9203 57.4393 13.8118 57.4887C13.7031 57.5328 13.5655 57.5567 13.3989 57.5605L12.86 57.5727C12.9919 57.6739 13.1296 57.8062 13.273 57.9697C13.4165 58.1331 13.5502 58.3411 13.6744 58.5936C13.7933 58.8462 13.8948 59.1486 13.9789 59.501C14.0579 59.8535 14.1015 60.2718 14.1097 60.7561C14.1175 61.2092 14.0909 61.637 14.0301 62.0395C13.9691 62.4368 13.8683 62.7855 13.7276 63.0856C13.5867 63.3806 13.4032 63.6165 13.1771 63.7935C12.9456 63.9655 12.6658 64.0551 12.3378 64.0626C11.9577 64.0711 11.6413 64.0001 11.3887 63.8495C11.1308 63.6939 10.924 63.4771 10.7682 63.1993C10.6072 62.9216 10.4922 62.596 10.4233 62.2225C10.3544 61.8438 10.3162 61.4357 10.3087 60.9982C10.3031 60.6702 10.3105 60.3418 10.3309 60.0131C10.3461 59.6794 10.3746 59.3635 10.4164 59.0657C10.4529 58.7679 10.503 58.4959 10.5665 58.2496C10.6247 57.9982 10.6967 57.7882 10.7824 57.6196C10.2512 57.6315 9.82547 57.7115 9.50503 57.8594C9.1846 58.0073 8.93786 58.2004 8.76482 58.4387C8.58657 58.6772 8.47143 58.9507 8.4194 59.2592C8.36207 59.5627 8.3362 59.8784 8.3418 60.2065ZM13.949 51.3356C13.957 51.8043 13.9177 52.2506 13.8312 52.6746C13.7394 53.0934 13.579 53.4643 13.3501 53.7872C13.1211 54.105 12.813 54.362 12.4257 54.5583C12.0382 54.7494 11.5503 54.8516 10.9619 54.8648C10.3788 54.878 9.88541 54.8136 9.4819 54.6716C9.07308 54.5246 8.74122 54.3081 8.48631 54.0221C8.23131 53.7309 8.04549 53.373 7.92886 52.9485C7.80693 52.5188 7.74125 52.028 7.73184 51.476C7.72242 50.924 7.74818 50.4493 7.80911 50.052C7.86485 49.6548 7.93987 49.3197 8.03418 49.0467C8.1284 48.7685 8.23393 48.5421 8.35076 48.3675C8.46229 48.1879 8.56664 48.0449 8.66379 47.9385L5.66456 48.0062C5.59687 48.0077 5.52917 48.0092 5.46148 48.0108C5.3937 48.0071 5.3336 47.9954 5.28117 47.9758C5.22875 47.9561 5.1866 47.9284 5.15474 47.8927C5.12279 47.8517 5.10614 47.7922 5.10481 47.7141C5.10348 47.6359 5.11808 47.5757 5.14861 47.5333C5.17393 47.4911 5.20985 47.459 5.25636 47.4371C5.30286 47.4152 5.35992 47.4009 5.42752 47.3942C5.48992 47.3876 5.56017 47.3834 5.63827 47.3816L13.3785 47.2069C13.5451 47.2031 13.6576 47.2345 13.7161 47.3009C13.7744 47.3621 13.8042 47.4291 13.8055 47.502C13.807 47.5906 13.7822 47.6667 13.7312 47.7303C13.6802 47.794 13.5714 47.8277 13.4048 47.8315L12.3191 47.856C12.544 47.9082 12.741 48.0053 12.9101 48.1474C13.074 48.2896 13.215 48.4609 13.333 48.6614C13.4509 48.8567 13.551 49.0733 13.6332 49.311C13.7102 49.5489 13.7716 49.7898 13.8174 50.0336C13.8631 50.2722 13.8958 50.5059 13.9153 50.7347C13.9347 50.9583 13.946 51.1586 13.949 51.3356ZM13.4882 51.346C13.4776 51.0337 13.4484 50.6931 13.4004 50.3243C13.3473 49.9557 13.2605 49.6034 13.1402 49.2675C13.0198 48.9316 12.8559 48.6357 12.6484 48.3799C12.4409 48.1241 12.1723 47.9531 11.8427 47.8667L9.03089 47.9302C8.9392 48.0521 8.84289 48.2079 8.74195 48.3978C8.64092 48.5824 8.54854 48.8163 8.46482 49.0995C8.37581 49.3776 8.30599 49.7126 8.25538 50.1045C8.20468 50.4911 8.18377 50.9448 8.19266 51.4656C8.20119 51.9655 8.26059 52.394 8.37086 52.7509C8.48104 53.1027 8.65008 53.3932 8.87798 53.6225C9.10058 53.8467 9.38465 54.0096 9.73018 54.1112C10.0704 54.2077 10.4774 54.2506 10.9513 54.2399C11.446 54.2288 11.8587 54.1465 12.1894 53.9932C12.5149 53.8348 12.7744 53.6257 12.9679 53.3661C13.1614 53.1064 13.2995 52.8038 13.3821 52.4581C13.4595 52.1073 13.4948 51.7366 13.4882 51.346ZM9.71128 31.4812C9.352 31.4893 9.05313 31.5273 8.81467 31.5952C8.57613 31.6579 8.38763 31.7533 8.24917 31.8815C8.10542 32.0046 8.00646 32.1579 7.95229 32.3414C7.89812 32.525 7.87317 32.7417 7.87744 32.9917C7.88881 33.6583 8.03366 34.2098 8.31197 34.6464C8.5902 35.0777 8.96872 35.4338 9.44754 35.7147L13.1966 35.6301C13.2903 35.628 13.3634 35.6368 13.4158 35.6564C13.4681 35.6709 13.5102 35.6934 13.542 35.7239C13.5685 35.7546 13.5873 35.788 13.5984 35.8242C13.6041 35.8553 13.6073 35.8865 13.6078 35.9178C13.6084 35.9542 13.6065 35.9933 13.602 36.0351C13.5974 36.0717 13.5824 36.1059 13.5569 36.1377C13.5313 36.1696 13.4927 36.1965 13.441 36.2185C13.3841 36.2406 13.3062 36.2528 13.2072 36.255L9.4582 36.3397C8.98436 36.3503 8.61397 36.4707 8.34703 36.7008C8.08 36.9256 7.95066 37.2828 7.95901 37.7723C7.96532 38.142 8.01284 38.4848 8.10157 38.8005C8.1903 39.1163 8.3071 39.3976 8.45195 39.6444C8.59672 39.886 8.76685 40.0879 8.96235 40.2502C9.15265 40.4126 9.35247 40.5227 9.56182 40.5805L13.2796 40.4966C13.4619 40.4925 13.577 40.5211 13.6249 40.5826C13.6675 40.6389 13.6894 40.6983 13.6904 40.7608C13.6911 40.7973 13.6891 40.8364 13.6846 40.8782C13.6801 40.9199 13.6652 40.9594 13.6398 40.9964C13.6143 41.0282 13.5757 41.0578 13.5241 41.085C13.4671 41.1071 13.3892 41.1193 13.2903 41.1215L8.09629 41.2387C7.92967 41.2425 7.82495 41.211 7.78214 41.1443C7.73412 41.0776 7.70944 41.0052 7.70811 40.9271C7.7066 40.8386 7.72883 40.7678 7.77481 40.7146C7.81549 40.6564 7.91914 40.6254 8.08576 40.6216L9.04645 40.6C8.81072 40.5219 8.59761 40.3965 8.40714 40.2237C8.21658 40.0456 8.05672 39.8357 7.92758 39.5937C7.79314 39.3467 7.68945 39.0703 7.61652 38.7646C7.54359 38.4589 7.50423 38.1368 7.49845 37.7983C7.4917 37.4025 7.54096 37.0836 7.64621 36.8416C7.74618 36.5945 7.87311 36.4015 8.02701 36.2626C8.1757 36.1237 8.33292 36.0264 8.49865 35.9706C8.6643 35.9095 8.80678 35.8647 8.9261 35.8359C8.76308 35.7458 8.59433 35.6246 8.41983 35.4723C8.24524 35.3147 8.0857 35.1229 7.9412 34.897C7.79141 34.6659 7.66958 34.3952 7.57573 34.0847C7.47668 33.7744 7.42373 33.4187 7.41688 33.0177C7.40462 32.2991 7.58041 31.7637 7.94424 31.4117C8.30287 31.0598 8.88833 30.8746 9.70062 30.8563L13.1138 30.7793C13.2075 30.7771 13.2806 30.7859 13.333 30.8056C13.3855 30.8252 13.4276 30.8503 13.4593 30.8809C13.4858 30.9063 13.5046 30.9371 13.5156 30.9734C13.5214 31.0097 13.5246 31.0435 13.5252 31.0747C13.5259 31.1164 13.5239 31.1555 13.5193 31.1921C13.5148 31.2287 13.4997 31.2629 13.4742 31.2947C13.4487 31.3265 13.4101 31.3534 13.3584 31.3754C13.3014 31.3924 13.2234 31.4019 13.1245 31.4042L9.71128 31.4812ZM13.4958 24.777C13.5081 25.4957 13.4482 26.1039 13.316 26.6018C13.1787 27.0998 12.9798 27.5055 12.7195 27.8187C12.4591 28.1267 12.14 28.3527 11.7622 28.4967C11.3844 28.6407 10.956 28.7181 10.4769 28.7289C9.92498 28.7414 9.45246 28.6765 9.05936 28.5343C8.66096 28.387 8.33148 28.1574 8.07092 27.8455C7.81026 27.5284 7.61592 27.129 7.4879 26.6474C7.35979 26.1606 7.29004 25.5839 7.27867 24.9174C7.2673 24.2508 7.31736 23.674 7.42886 23.187C7.54026 22.6948 7.72083 22.287 7.97055 21.9635C8.22019 21.6349 8.54158 21.3906 8.93474 21.2307C9.3226 21.0656 9.7925 20.9769 10.3444 20.9644C10.8235 20.9536 11.2542 21.0116 11.6366 21.1384C12.0191 21.2652 12.3457 21.4793 12.6165 21.7805C12.8872 22.0766 13.0997 22.4703 13.2539 22.9617C13.4029 23.4533 13.4836 24.0584 13.4958 24.777ZM13.035 24.7874C13.0269 24.3135 12.9861 23.9055 12.9126 23.5633C12.8338 23.2213 12.7299 22.9319 12.6008 22.6951C12.4717 22.4532 12.3226 22.2612 12.1534 22.1192C11.9842 21.9719 11.8026 21.8588 11.6085 21.7798C11.4091 21.6958 11.2051 21.6431 10.9964 21.6217C10.7823 21.5953 10.5686 21.5845 10.3551 21.5893C9.87085 21.6002 9.46057 21.672 9.12424 21.8046C8.78792 21.9373 8.51528 22.1388 8.30632 22.4092C8.09737 22.6796 7.94954 23.0215 7.86283 23.4351C7.77092 23.8487 7.7298 24.3393 7.73949 24.9069C7.74926 25.4798 7.80713 25.9708 7.91308 26.3799C8.01374 26.784 8.17307 27.1164 8.39109 27.3772C8.60911 27.638 8.88842 27.827 9.229 27.9444C9.56959 28.0617 9.98201 28.1149 10.4663 28.104C10.6798 28.0992 10.893 28.0813 11.1061 28.0505C11.3138 28.0145 11.5159 27.9527 11.7123 27.8649C11.9035 27.772 12.0811 27.6508 12.2453 27.5012C12.4093 27.3464 12.5518 27.1478 12.6727 26.9055C12.7935 26.6579 12.8874 26.3614 12.9544 26.0161C13.0162 25.6709 13.0431 25.2613 13.035 24.7874ZM7.28379 14.2272C7.29843 14.1695 7.32896 14.1272 7.37538 14.1001C7.41659 14.0731 7.46324 14.059 7.51531 14.0578C7.583 14.0563 7.64588 14.0783 7.70396 14.1239C7.76194 14.1643 7.79169 14.2287 7.7932 14.3173C7.79365 14.3433 7.79392 14.3589 7.794 14.3641C7.78889 14.3695 7.78395 14.3852 7.77918 14.4113C7.72537 14.6157 7.68444 14.812 7.6564 15.0002C7.62827 15.1832 7.61607 15.384 7.6198 15.6027C7.62504 15.91 7.66131 16.2035 7.72859 16.4833C7.79057 16.758 7.88601 17.0085 8.01488 17.2348C8.13847 17.4561 8.29801 17.6478 8.49351 17.8101C8.68381 17.9725 8.90724 18.0925 9.1638 18.1701L12.7566 18.089C12.892 18.0859 13.0173 18.1013 13.1325 18.1352C13.2477 18.169 13.3063 18.2511 13.3086 18.3813C13.3098 18.4542 13.2952 18.5144 13.2648 18.562C13.2342 18.6043 13.1931 18.6365 13.1414 18.6585C13.0897 18.6805 13.0326 18.6949 12.9702 18.7015C12.9026 18.7082 12.835 18.7123 12.7673 18.7139L7.76857 18.8267C7.64881 18.8294 7.54692 18.8109 7.4629 18.7711C7.37367 18.7314 7.32776 18.6361 7.32519 18.4851C7.32323 18.3705 7.36364 18.2967 7.44642 18.2635C7.52911 18.2252 7.63294 18.2046 7.75791 18.2018L8.66393 18.1813C8.34488 18.1052 8.08469 17.9678 7.88336 17.7692C7.68194 17.5653 7.52702 17.3396 7.41862 17.092C7.30492 16.8393 7.22758 16.5806 7.1866 16.3158C7.14562 16.051 7.12339 15.8171 7.11993 15.614C7.11655 15.4161 7.12147 15.2467 7.1347 15.1057C7.14262 14.9597 7.15611 14.8344 7.17516 14.7297C7.18901 14.6252 7.20567 14.5337 7.22517 14.4551C7.24467 14.3765 7.2642 14.3005 7.28379 14.2272ZM7.47319 9.29984C7.48145 9.78415 7.53044 10.2128 7.62015 10.5859C7.70986 10.959 7.8507 11.2762 8.04269 11.5375C8.22938 11.7938 8.46976 11.9915 8.76384 12.1308C9.05792 12.27 9.41602 12.3453 9.83815 12.3566L9.73765 6.46681L9.31588 6.47633C9.05553 6.48221 8.81165 6.5372 8.58423 6.64132C8.35672 6.74023 8.15891 6.90098 7.99081 7.12358C7.82271 7.34617 7.69222 7.63565 7.59933 7.992C7.50644 8.34834 7.46439 8.78429 7.47319 9.29984ZM12.7756 9.5865C12.7672 9.09178 12.7286 8.66025 12.6598 8.29193C12.591 7.9236 12.5101 7.60764 12.417 7.34405C12.324 7.08047 12.2292 6.86641 12.1326 6.70188C12.0359 6.53215 11.9556 6.40112 11.8915 6.30879C11.8805 6.27778 11.875 6.25707 11.8748 6.24665C11.8738 6.18937 11.9016 6.13665 11.958 6.08849C12.0092 6.03524 12.0661 6.0079 12.1285 6.00649C12.1858 6.0052 12.2331 6.03018 12.2705 6.08143C12.3181 6.12724 12.3928 6.22715 12.4944 6.38114C12.5959 6.52993 12.7011 6.74635 12.8102 7.03042C12.914 7.3146 13.0085 7.66672 13.0938 8.08677C13.1792 8.50682 13.2267 9.00587 13.2366 9.58391C13.2469 10.188 13.1802 10.7026 13.0363 11.1279C12.8925 11.5531 12.6875 11.9015 12.4213 12.1732C12.1551 12.4449 11.8329 12.645 11.4548 12.7733C11.0768 12.9017 10.6612 12.971 10.2082 12.9812C9.60421 12.9948 9.10009 12.9098 8.69587 12.7262C8.29164 12.5426 7.96692 12.2868 7.72171 11.9589C7.47121 11.626 7.29262 11.2341 7.18596 10.7832C7.07921 10.3272 7.02134 9.83621 7.01237 9.31024C6.99389 8.22707 7.18835 7.41259 7.59576 6.86681C7.99787 6.31593 8.58424 6.0318 9.35488 6.0144C9.42778 6.01276 9.50858 6.01614 9.59727 6.02456C9.68597 6.03298 9.77215 6.04666 9.85582 6.06561C9.93419 6.07947 10.0022 6.09877 10.06 6.12352C10.1124 6.14317 10.1388 6.16341 10.1391 6.18425L10.1783 8.48079L10.1663 12.357C10.6504 12.3356 11.0607 12.2639 11.3972 12.1417C11.7284 12.0144 11.9988 11.8363 12.2085 11.6076C12.4129 11.3738 12.5617 11.0891 12.6549 10.7536C12.743 10.4182 12.7832 10.0291 12.7756 9.5865Z" fill="white"/>
<line y1="-0.5" x2="56.4753" y2="-0.5" transform="matrix(0.00312062 0.999995 -0.999991 0.00412836 9.56365 114)" stroke="white"/>
</svg>
