<svg width="193" height="51" viewBox="0 0 193 51" fill="none" xmlns="http://www.w3.org/2000/svg">
<g id="logo-white 1" clip-path="url(#clip0)">
<g id="Warstwa 2">
<g id="Layer 1">
<path id="aletter" d="M136.411 31.66C134.383 31.7589 132.386 31.1392 130.771 29.91C130.077 29.3652 129.521 28.6652 129.148 27.8661C128.774 27.0671 128.594 26.1916 128.621 25.31V23.65C128.6 22.77 128.793 21.8981 129.183 21.1091C129.573 20.3201 130.149 19.6375 130.861 19.12C132.578 17.8983 134.656 17.289 136.761 17.39H139.491C140.337 17.4004 141.179 17.5077 142.001 17.71C142.849 17.9038 143.674 18.1888 144.461 18.56V16.23C144.472 15.8931 144.413 15.5575 144.285 15.2455C144.157 14.9335 143.965 14.6521 143.721 14.42C143.186 13.9431 142.486 13.6953 141.771 13.73H137.931C137.218 13.6972 136.515 13.9012 135.931 14.31C135.689 14.4904 135.493 14.7262 135.361 14.9976C135.229 15.269 135.163 15.5682 135.171 15.87H129.271C129.239 14.8701 129.438 13.8763 129.852 12.9658C130.267 12.0553 130.886 11.2526 131.661 10.62C133.451 9.223 135.682 8.51348 137.951 8.62H141.791C144.091 8.50846 146.352 9.24902 148.14 10.7C148.933 11.379 149.562 12.2279 149.981 13.1836C150.4 14.1393 150.598 15.1772 150.56 16.22V31.3H144.901V28.62C144.191 29.5395 143.29 30.2937 142.261 30.83C141.318 31.3555 140.26 31.6406 139.181 31.66H136.411ZM139.631 27C140.693 27.022 141.738 26.726 142.631 26.15C143.476 25.6001 144.132 24.8044 144.511 23.87V23.11C143.907 22.6967 143.227 22.4078 142.511 22.26C141.623 22.0443 140.714 21.9368 139.801 21.94H136.981C136.356 21.913 135.741 22.1038 135.241 22.48C135.024 22.6486 134.85 22.8661 134.734 23.1146C134.618 23.3631 134.562 23.6357 134.571 23.91V25.07C134.567 25.3441 134.632 25.6147 134.76 25.8574C134.887 26.1001 135.073 26.3072 135.301 26.46C135.891 26.8527 136.593 27.0422 137.301 27H139.631Z" fill="#212842"/>
<path id="eletter" d="M92.061 31.66C90.3362 31.6952 88.6261 31.3361 87.0611 30.61C85.6815 29.9609 84.5108 28.9391 83.6811 27.66C82.8702 26.3523 82.4535 24.8385 82.4811 23.3V17.53C82.4475 15.8993 82.8626 14.2908 83.6811 12.88C84.4903 11.539 85.662 10.454 87.0611 9.75001C88.6124 8.97724 90.3283 8.59288 92.061 8.63001H95.641C98.1551 8.49621 100.623 9.34621 102.521 11C103.389 11.8256 104.07 12.8275 104.519 13.9384C104.967 15.0492 105.172 16.2432 105.121 17.44V22.18H88.5711V23.3C88.552 23.739 88.6259 24.177 88.7879 24.5854C88.9499 24.9938 89.1963 25.3634 89.5111 25.67C90.2106 26.2911 91.127 26.6109 92.061 26.56H95.551C96.4428 26.6024 97.3251 26.3608 98.071 25.87C98.3764 25.6767 98.6281 25.4095 98.8029 25.0931C98.9776 24.7768 99.0699 24.4214 99.071 24.06H105.071C105.097 25.4872 104.673 26.8864 103.861 28.06C103.012 29.2563 101.839 30.186 100.481 30.74C98.8964 31.3928 97.1945 31.7127 95.481 31.68L92.061 31.66ZM99.121 17.84V17.48C99.1715 16.4663 98.8396 15.4706 98.191 14.69C97.87 14.3514 97.4793 14.0867 97.0459 13.914C96.6126 13.7413 96.1468 13.6649 95.681 13.69H92.061C91.5715 13.6707 91.0839 13.7612 90.634 13.9551C90.1841 14.1489 89.7833 14.441 89.4611 14.81C88.7597 15.6472 88.4023 16.7194 88.4611 17.81V17.94L99.121 17.84Z" fill="#212842"/>
<path id="dletter" d="M63.0014 31.66C61.8234 31.7105 60.6473 31.5222 59.544 31.1063C58.4407 30.6904 57.433 30.0556 56.5814 29.24C55.7637 28.404 55.1261 27.4092 54.7081 26.3169C54.2902 25.2247 54.1007 24.0584 54.1515 22.89V17.8C54.1275 16.1229 54.5411 14.4685 55.3514 13C56.1009 11.6318 57.234 10.5125 58.6114 9.78C60.1166 8.99647 61.7948 8.60443 63.4914 8.64H66.0013C66.9095 8.6516 67.8066 8.84188 68.6413 9.2C69.4831 9.53517 70.2435 10.0466 70.8713 10.7V0H76.9612V31.3H71.2713V28.35C70.6739 29.3305 69.8468 30.1508 68.8613 30.74C67.906 31.333 66.8057 31.6513 65.6813 31.66H63.0014ZM66.3113 26.43C66.8863 26.4429 67.4573 26.3316 67.9853 26.1038C68.5134 25.8761 68.9861 25.5371 69.3713 25.11C70.2299 24.1363 70.7277 22.8971 70.7813 21.6V17.71C70.6302 16.6579 70.1548 15.6792 69.4213 14.91C69.1082 14.5826 68.7329 14.321 68.3173 14.1407C67.9017 13.9604 67.4543 13.865 67.0013 13.86H64.2514C63.7106 13.8394 63.1719 13.9369 62.6728 14.1459C62.1736 14.3549 61.7261 14.6703 61.3614 15.07C60.6052 15.9479 60.215 17.0827 60.2714 18.24V22.45C60.2293 23.5018 60.5865 24.5306 61.2714 25.33C61.5905 25.6882 61.9841 25.9722 62.4246 26.1622C62.8651 26.3523 63.3418 26.4437 63.8214 26.43H66.3113Z" fill="#212842"/>
<path id="oletter" d="M35.8617 31.66C34.1315 31.694 32.4179 31.317 30.8617 30.56C29.4643 29.8741 28.2994 28.7926 27.5117 27.45C26.7015 26.0363 26.2902 24.4291 26.3218 22.8V17.57C26.2926 15.9322 26.711 14.3176 27.5317 12.9C28.3314 11.5463 29.5051 10.4525 30.9117 9.75C32.4624 8.97533 34.1787 8.59087 35.9117 8.63H39.9116C41.6444 8.59288 43.3602 8.97723 44.9116 9.75C46.3151 10.4531 47.4854 11.547 48.2815 12.9C49.1057 14.3162 49.5243 15.9318 49.4915 17.57V22.8C49.5268 24.4322 49.1079 26.0421 48.2815 27.45C47.4858 28.7933 46.3143 29.8744 44.9116 30.56C43.3538 31.3123 41.6413 31.6891 39.9116 31.66H35.8617ZM39.8016 26.43C40.2976 26.4507 40.7918 26.3589 41.2473 26.1615C41.7027 25.9641 42.1076 25.6661 42.4316 25.29C43.126 24.449 43.4825 23.3795 43.4316 22.29V18C43.4844 16.9102 43.1277 15.8401 42.4316 15C42.1138 14.627 41.7157 14.3307 41.2672 14.1333C40.8187 13.9359 40.3313 13.8425 39.8416 13.86H36.0017C35.5104 13.8417 35.0213 13.9347 34.5711 14.1321C34.1208 14.3295 33.7211 14.6262 33.4017 15C32.7047 15.8396 32.3479 16.9101 32.4017 18V22.34C32.3508 23.4295 32.7073 24.499 33.4017 25.34C33.7235 25.7076 34.125 25.9968 34.5756 26.1857C35.0262 26.3746 35.5139 26.4582 36.0017 26.43H39.8016Z" fill="#212842"/>
<path id="nletter" d="M170.91 8.99998H176.55V11.68C177.213 10.7515 178.087 9.99394 179.1 9.46998C180.059 8.94041 181.134 8.65535 182.23 8.63998H184.91C185.971 8.5936 187.031 8.76882 188.021 9.15448C189.011 9.54015 189.91 10.1278 190.66 10.88C191.395 11.6701 191.966 12.5988 192.338 13.6118C192.711 14.6247 192.878 15.7017 192.83 16.78V31.3H186.75V17C186.787 16.1908 186.524 15.3964 186.01 14.77C185.778 14.4942 185.486 14.2745 185.157 14.1273C184.828 13.9801 184.47 13.9092 184.11 13.92H181.42C180.377 13.9217 179.376 14.3308 178.63 15.06C177.793 15.8459 177.223 16.8739 177 18V31.3H170.91V8.99998Z" fill="#212842"/>
<path id="iletter" d="M163.63 8.98999H157.55V31.3H163.63V8.98999Z" fill="#212842"/>
<path id="tletter" d="M120.001 31.3C117.381 31.3 115.451 30.7 114.231 29.51C113.011 28.32 112.401 26.51 112.401 23.97V14.17H108.461V8.99999H112.581V2.23999H118.481V8.99999H124.291V14.18H118.481V23.7C118.431 24.3452 118.596 24.9886 118.951 25.53C119.139 25.7363 119.372 25.8962 119.632 25.9968C119.893 26.0975 120.173 26.1362 120.451 26.11H124.291V31.3H120.001Z" fill="#212842"/>
<path id="cletter" d="M9.53193 31.66C7.79965 31.6924 6.08493 31.3083 4.53199 30.54C3.13753 29.8406 1.9744 28.7538 1.18202 27.41C0.375226 25.9953 -0.0325927 24.3882 0.00203522 22.76V17.53C-0.0295533 15.9008 0.381737 14.2937 1.19202 12.88C1.97946 11.5394 3.13523 10.453 4.52199 9.74999C6.07072 8.96988 7.78841 8.58511 9.52194 8.62999H13.0019C14.6516 8.59755 16.2847 8.96465 17.7618 9.69999C19.0877 10.3705 20.1893 11.413 20.9318 12.7C21.678 14.0384 22.064 15.5476 22.0518 17.08H16.0019C16.0202 16.2308 15.7247 15.4048 15.1719 14.76C14.8978 14.4607 14.5615 14.225 14.1866 14.0695C13.8117 13.914 13.4074 13.8425 13.0019 13.86H9.57193C9.08454 13.838 8.59869 13.9295 8.15271 14.1274C7.70672 14.3252 7.31279 14.6239 7.00196 15C6.31258 15.8438 5.95677 16.9113 6.00197 18V22.34C5.95106 23.4295 6.30754 24.4989 7.00196 25.34C7.31269 25.711 7.70375 26.0064 8.14554 26.2039C8.58733 26.4014 9.06827 26.4958 9.55193 26.48H12.9919C13.4258 26.4968 13.8578 26.4156 14.256 26.2425C14.6542 26.0694 15.0082 25.8087 15.2919 25.48C15.8047 24.8496 16.1025 24.0717 16.1419 23.26H22.1918C22.1771 25.5123 21.2753 27.6681 19.6818 29.26C18.7864 30.0944 17.7335 30.7418 16.5848 31.1642C15.436 31.5866 14.2146 31.7756 12.9919 31.72L9.53193 31.66Z" fill="#212842"/>
<path id="doti" d="M163.63 0H157.55V6.08H163.63V0Z" fill="#212842"/>
<path id="line" d="M192.83 44.58V50.67H186.75H6.08207H0.00213623V44.58V38.5H6.08207V44.58H186.75V38.5H192.83V44.58Z" fill="#33fff"/>
</g>
</g>
</g>logoPC.svg
<defs>
<linearGradient id="paint0_linear" x1="0.00213623" y1="44.58" x2="192.83" y2="44.58" gradientUnits="userSpaceOnUse">
<stop stop-color="#4B37CA"/>
<stop offset="1" stop-color="#33FFFF"/>
</linearGradient>
<clipPath id="clip0">
<rect width="192.83" height="50.67" fill="white"/>
</clipPath>
</defs>
</svg>
