<svg width="1810" height="898" viewBox="0 0 1810 898" fill="none" xmlns="http://www.w3.org/2000/svg">
<g id="bacgkround">
<rect width="1810" height="898" fill="white"/>
<g id="codetain 1">
<g id="codetain">
<path id="firstletter" d="M521 291.6C509.4 292.9 496.2 295.6 487.4 298.5C445.7 312.2 418.2 342.5 408.8 385C406.6 395.2 406.5 396.8 406.5 449C406.5 501.2 406.6 502.8 408.8 513C419.9 563.3 455.4 595.4 511 605.2C516.5 606.1 530.2 606.5 562 606.5C603.6 606.5 606 606.3 616 604.2C648.2 597.1 671.5 582.7 689.5 558.5C700.8 543.3 708.8 520.7 710.6 499.1L711.3 491H669.6H628V493.7C628 495.3 627.3 498.9 626.5 501.9C623 515.3 614.6 525.9 603.3 531.3L596.5 534.5H561H525.5L518.7 531.3C509.8 527.1 501.2 518.8 496.7 510.2C490.1 497.6 489.8 495.4 489.3 455.4C488.8 416.8 489.4 406.9 493.1 395.7C497.9 381.1 509.4 369.1 522.6 365C528.7 363.2 531.8 363 560.4 363C585.8 363 592.6 363.3 597.1 364.6C612.5 369 622.9 382.8 625.5 402.2L626.1 407H667.1H708V401.2C708 398.1 707.3 391.4 706.5 386.3C699.5 342.9 671.6 310.9 629.2 297.6C612 292.2 607.5 291.8 564.5 291.5C542.5 291.4 522.9 291.4 521 291.6Z" fill="#212842"/>
<path id="lastletter" d="M1245.3 292.5C1223.4 296.5 1200.8 309.5 1186.9 326.2L1182 332.1V314.1V296H1143H1104V449V602H1146H1188V509.9V417.9L1190.6 410.2C1194.2 399.3 1199.2 390.9 1206.7 383C1214.6 374.6 1222 369.5 1231.4 366.1C1238.4 363.5 1238.9 363.5 1266 363.5H1293.5L1299 366.1C1309.1 370.8 1315.9 378.7 1319.6 390C1321.4 395.2 1321.5 401.9 1321.8 498.7L1322.1 602H1363.5H1405V498.2C1405 429 1404.6 391.5 1403.9 385.5C1400.6 358.7 1391.1 338 1374.1 320.9C1357.8 304.5 1337.9 295.2 1312.5 292.1C1300 290.6 1254.4 290.8 1245.3 292.5Z" fill="#212842"/>
<g id="space">
<path d="M805 449V491L905.3 490.8L1005.5 490.5V449V407.5L905.3 407.2L805 407V449Z" fill="#4B37CA"/>
<path d="M805 449V491L905.3 490.8L1005.5 490.5V449V407.5L905.3 407.2L805 407V449Z" fill="url(#paint0_linear)"/>
</g>
</g>
</g>
</g>
<defs>
<linearGradient id="paint0_linear" x1="1005" y1="407" x2="797.5" y2="406" gradientUnits="userSpaceOnUse">
<stop stop-color="#2FCFD4"/>
<stop offset="1" stop-color="white" stop-opacity="0"/>
</linearGradient>
</defs>
</svg>
